<svg width="26" height="26" viewBox="0 0 26 26" fill="none" xmlns="http://www.w3.org/2000/svg">
<g clip-path="url(#clip0_1512_5034)">
<path d="M25.5971 12.6093C23.2434 8.01687 18.5836 4.90967 13.2481 4.90967C7.91264 4.90967 3.25162 8.01904 0.899187 12.6098C0.7999 12.8062 0.748169 13.0231 0.748169 13.2432C0.748169 13.4633 0.7999 13.6803 0.899187 13.8767C3.25292 18.4691 7.91264 21.5763 13.2481 21.5763C18.5836 21.5763 23.2447 18.467 25.5971 13.8762C25.6964 13.6798 25.7481 13.4629 25.7481 13.2428C25.7481 13.0227 25.6964 12.8057 25.5971 12.6093ZM13.2481 19.493C12.012 19.493 10.8036 19.1264 9.77583 18.4397C8.74802 17.7529 7.94695 16.7768 7.4739 15.6348C7.00085 14.4927 6.87708 13.2361 7.11824 12.0237C7.35939 10.8113 7.95465 9.69766 8.82873 8.82358C9.70281 7.94951 10.8164 7.35425 12.0288 7.11309C13.2412 6.87194 14.4979 6.99571 15.6399 7.46875C16.782 7.9418 17.7581 8.74288 18.4448 9.77069C19.1316 10.7985 19.4981 12.0069 19.4981 13.243C19.4985 14.0639 19.3372 14.8768 19.0232 15.6352C18.7093 16.3937 18.2489 17.0829 17.6685 17.6633C17.088 18.2438 16.3989 18.7041 15.6404 19.0181C14.8819 19.332 14.069 19.4934 13.2481 19.493ZM13.2481 9.07633C12.8762 9.08153 12.5067 9.13686 12.1496 9.24083C12.444 9.64086 12.5852 10.1331 12.5478 10.6284C12.5103 11.1236 12.2966 11.5891 11.9454 11.9403C11.5942 12.2915 11.1288 12.5052 10.6335 12.5426C10.1383 12.5801 9.64601 12.4388 9.24597 12.1445C9.01818 12.9837 9.0593 13.8732 9.36355 14.6879C9.66779 15.5025 10.2198 16.2012 10.942 16.6857C11.6641 17.1701 12.52 17.4159 13.3892 17.3885C14.2584 17.361 15.097 17.0617 15.7872 16.5326C16.4773 16.0036 16.9841 15.2714 17.2364 14.4392C17.4886 13.607 17.4735 12.7166 17.1932 11.8934C16.9128 11.0702 16.3815 10.3557 15.6738 9.85034C14.9661 9.34499 14.1177 9.07429 13.2481 9.07633Z" fill="#2A3547"/>
</g>
<defs>
<clipPath id="clip0_1512_5034">
<rect width="25" height="25" fill="white" transform="translate(0.748169 0.74292)"/>
</clipPath>
</defs>
</svg>
