<svg width="12" height="12" viewBox="0 0 12 12" fill="none" xmlns="http://www.w3.org/2000/svg">
<path d="M6 11C8.76142 11 11 8.76142 11 6C11 3.23858 8.76142 1 6 1C3.23858 1 1 3.23858 1 6C1 8.76142 3.23858 11 6 11Z" stroke="#2A3547" stroke-width="0.8" stroke-linecap="round" stroke-linejoin="round"/>
<path d="M4.00078 1.5H4.50078C3.52578 4.42 3.52578 7.58 4.50078 10.5H4.00078" stroke="#2A3547" stroke-width="0.8" stroke-linecap="round" stroke-linejoin="round"/>
<path d="M7.5 1.5C8.475 4.42 8.475 7.58 7.5 10.5" stroke="#2A3547" stroke-width="0.8" stroke-linecap="round" stroke-linejoin="round"/>
<path d="M1.5 8V7.5C4.42 8.475 7.58 8.475 10.5 7.5V8" stroke="#2A3547" stroke-width="0.8" stroke-linecap="round" stroke-linejoin="round"/>
<path d="M1.5 4.4998C4.42 3.5248 7.58 3.5248 10.5 4.4998" stroke="#2A3547" stroke-width="0.8" stroke-linecap="round" stroke-linejoin="round"/>
</svg>
