<svg width="16" height="17" viewBox="0 0 16 17" fill="none" xmlns="http://www.w3.org/2000/svg">
<path d="M7.99984 11.6501C8.15539 11.6501 8.28317 11.6001 8.38317 11.5001C8.48317 11.4001 8.53317 11.2723 8.53317 11.1167C8.53317 10.9612 8.48317 10.8334 8.38317 10.7334C8.28317 10.6334 8.15539 10.5834 7.99984 10.5834C7.84428 10.5834 7.7165 10.6334 7.6165 10.7334C7.5165 10.8334 7.4665 10.9612 7.4665 11.1167C7.4665 11.2723 7.5165 11.4001 7.6165 11.5001C7.7165 11.6001 7.84428 11.6501 7.99984 11.6501ZM7.49984 9.21675H8.49984V5.21675H7.49984V9.21675ZM7.99984 14.8334C7.12206 14.8334 6.29717 14.6667 5.52517 14.3334C4.75273 14.0001 4.08317 13.5501 3.5165 12.9834C2.94984 12.4167 2.49984 11.7472 2.1665 10.9747C1.83317 10.2027 1.6665 9.37786 1.6665 8.50008C1.6665 7.6223 1.83317 6.79719 2.1665 6.02475C2.49984 5.25275 2.94984 4.58341 3.5165 4.01675C4.08317 3.45008 4.75273 3.00008 5.52517 2.66675C6.29717 2.33341 7.12206 2.16675 7.99984 2.16675C8.87761 2.16675 9.70273 2.33341 10.4752 2.66675C11.2472 3.00008 11.9165 3.45008 12.4832 4.01675C13.0498 4.58341 13.4998 5.25275 13.8332 6.02475C14.1665 6.79719 14.3332 7.6223 14.3332 8.50008C14.3332 9.37786 14.1665 10.2027 13.8332 10.9747C13.4998 11.7472 13.0498 12.4167 12.4832 12.9834C11.9165 13.5501 11.2472 14.0001 10.4752 14.3334C9.70273 14.6667 8.87761 14.8334 7.99984 14.8334ZM7.99984 13.8334C9.48873 13.8334 10.7498 13.3167 11.7832 12.2834C12.8165 11.2501 13.3332 9.98897 13.3332 8.50008C13.3332 7.01119 12.8165 5.75008 11.7832 4.71675C10.7498 3.68341 9.48873 3.16675 7.99984 3.16675C6.51095 3.16675 5.24984 3.68341 4.2165 4.71675C3.18317 5.75008 2.6665 7.01119 2.6665 8.50008C2.6665 9.98897 3.18317 11.2501 4.2165 12.2834C5.24984 13.3167 6.51095 13.8334 7.99984 13.8334Z" fill="#FA896B"/>
</svg>
