<svg width="56" height="56" viewBox="0 0 56 56" fill="none" xmlns="http://www.w3.org/2000/svg">
<rect width="56" height="56" rx="10" fill="url(#paint0_linear_6895_13806)"/>
<path d="M3.4214 35V28.717C3.4214 27.9067 3.61367 27.1651 3.9982 26.4922C4.38273 25.8055 4.93893 25.2631 5.6668 24.8648C6.39467 24.4528 7.26673 24.2468 8.283 24.2468C8.7774 24.2468 9.2512 24.3086 9.7044 24.4322C10.1576 24.5558 10.5765 24.7549 10.961 25.0296C11.3593 25.2905 11.6957 25.6201 11.9704 26.0184H11.991C12.2657 25.6201 12.5953 25.2905 12.9798 25.0296C13.3781 24.7549 13.8038 24.5558 14.257 24.4322C14.7239 24.3086 15.2046 24.2468 15.699 24.2468C16.729 24.2468 17.6011 24.4528 18.3152 24.8648C19.0431 25.2631 19.5993 25.8055 19.9838 26.4922C20.3683 27.1651 20.5606 27.9067 20.5606 28.717V35H18.2122V28.717C18.2122 28.2638 18.0955 27.8518 17.862 27.481C17.6423 27.1102 17.347 26.8149 16.9762 26.5952C16.6054 26.3755 16.1797 26.2656 15.699 26.2656C15.2321 26.2656 14.8063 26.3755 14.4218 26.5952C14.0373 26.8149 13.7283 27.1102 13.4948 27.481C13.2751 27.8518 13.1652 28.2638 13.1652 28.717V35H10.8168V28.717C10.8168 28.2638 10.7001 27.8518 10.4666 27.481C10.2331 27.1102 9.92413 26.8149 9.5396 26.5952C9.1688 26.3755 8.74993 26.2656 8.283 26.2656C7.81607 26.2656 7.39033 26.3755 7.0058 26.5952C6.635 26.8149 6.33287 27.1102 6.0994 27.481C5.87967 27.8518 5.7698 28.2638 5.7698 28.717V35H3.4214ZM23.3978 35V24.494H25.7668V35H23.3978ZM24.572 23.0314C24.16 23.0314 23.8029 22.8803 23.5008 22.5782C23.1986 22.2761 23.0476 21.919 23.0476 21.507C23.0476 21.095 23.1986 20.7379 23.5008 20.4358C23.8029 20.1337 24.16 19.9826 24.572 19.9826C24.9977 19.9826 25.3548 20.1337 25.6432 20.4358C25.9453 20.7379 26.0964 21.095 26.0964 21.507C26.0964 21.919 25.9453 22.2761 25.6432 22.5782C25.3548 22.8803 24.9977 23.0314 24.572 23.0314ZM28.6081 35V28.717C28.6081 27.9067 28.8004 27.1651 29.1849 26.4922C29.5695 25.8055 30.1257 25.2631 30.8535 24.8648C31.5814 24.4528 32.4535 24.2468 33.4697 24.2468C33.9641 24.2468 34.4379 24.3086 34.8911 24.4322C35.3443 24.5558 35.7632 24.7549 36.1477 25.0296C36.546 25.2905 36.8825 25.6201 37.1571 26.0184H37.1777C37.4524 25.6201 37.782 25.2905 38.1665 25.0296C38.5648 24.7549 38.9905 24.5558 39.4437 24.4322C39.9107 24.3086 40.3913 24.2468 40.8857 24.2468C41.9157 24.2468 42.7878 24.4528 43.5019 24.8648C44.2298 25.2631 44.786 25.8055 45.1705 26.4922C45.5551 27.1651 45.7473 27.9067 45.7473 28.717V35H43.3989V28.717C43.3989 28.2638 43.2822 27.8518 43.0487 27.481C42.829 27.1102 42.5337 26.8149 42.1629 26.5952C41.7921 26.3755 41.3664 26.2656 40.8857 26.2656C40.4188 26.2656 39.9931 26.3755 39.6085 26.5952C39.224 26.8149 38.915 27.1102 38.6815 27.481C38.4618 27.8518 38.3519 28.2638 38.3519 28.717V35H36.0035V28.717C36.0035 28.2638 35.8868 27.8518 35.6533 27.481C35.4199 27.1102 35.1109 26.8149 34.7263 26.5952C34.3555 26.3755 33.9367 26.2656 33.4697 26.2656C33.0028 26.2656 32.5771 26.3755 32.1925 26.5952C31.8217 26.8149 31.5196 27.1102 31.2861 27.481C31.0664 27.8518 30.9565 28.2638 30.9565 28.717V35H28.6081ZM48.5845 35V24.494H50.9535V35H48.5845ZM49.7587 23.0314C49.3467 23.0314 48.9896 22.8803 48.6875 22.5782C48.3854 22.2761 48.2343 21.919 48.2343 21.507C48.2343 21.095 48.3854 20.7379 48.6875 20.4358C48.9896 20.1337 49.3467 19.9826 49.7587 19.9826C50.1844 19.9826 50.5415 20.1337 50.8299 20.4358C51.132 20.7379 51.2831 21.095 51.2831 21.507C51.2831 21.919 51.132 22.2761 50.8299 22.5782C50.5415 22.8803 50.1844 23.0314 49.7587 23.0314Z" fill="white"/>
<defs>
<linearGradient id="paint0_linear_6895_13806" x1="86.4065" y1="-3.36396" x2="16.6092" y2="17.5868" gradientUnits="userSpaceOnUse">
<stop stop-color="#FFF501"/>
<stop offset="1" stop-color="#FE9300"/>
</linearGradient>
</defs>
</svg>
