<svg width="28" height="28" viewBox="0 0 28 28" fill="none" xmlns="http://www.w3.org/2000/svg">
<rect width="28" height="28" rx="5" fill="url(#paint0_linear_7159_15306)"/>
<path d="M2.46344 18V14.95C2.46344 14.5567 2.55677 14.1967 2.74344 13.87C2.9301 13.5367 3.2001 13.2733 3.55344 13.08C3.90677 12.88 4.3301 12.78 4.82344 12.78C5.06344 12.78 5.29344 12.81 5.51344 12.87C5.73344 12.93 5.93677 13.0267 6.12344 13.16C6.31677 13.2867 6.4801 13.4467 6.61344 13.64H6.62344C6.75677 13.4467 6.91677 13.2867 7.10344 13.16C7.29677 13.0267 7.50344 12.93 7.72344 12.87C7.9501 12.81 8.18344 12.78 8.42344 12.78C8.92344 12.78 9.34677 12.88 9.69344 13.08C10.0468 13.2733 10.3168 13.5367 10.5034 13.87C10.6901 14.1967 10.7834 14.5567 10.7834 14.95V18H9.64344V14.95C9.64344 14.73 9.58677 14.53 9.47344 14.35C9.36677 14.17 9.22344 14.0267 9.04344 13.92C8.86344 13.8133 8.65677 13.76 8.42344 13.76C8.19677 13.76 7.9901 13.8133 7.80344 13.92C7.61677 14.0267 7.46677 14.17 7.35344 14.35C7.24677 14.53 7.19344 14.73 7.19344 14.95V18H6.05344V14.95C6.05344 14.73 5.99677 14.53 5.88344 14.35C5.7701 14.17 5.6201 14.0267 5.43344 13.92C5.25344 13.8133 5.0501 13.76 4.82344 13.76C4.59677 13.76 4.3901 13.8133 4.20344 13.92C4.02344 14.0267 3.87677 14.17 3.76344 14.35C3.65677 14.53 3.60344 14.73 3.60344 14.95V18H2.46344ZM12.1607 18V12.9H13.3107V18H12.1607ZM12.7307 12.19C12.5307 12.19 12.3574 12.1167 12.2107 11.97C12.064 11.8233 11.9907 11.65 11.9907 11.45C11.9907 11.25 12.064 11.0767 12.2107 10.93C12.3574 10.7833 12.5307 10.71 12.7307 10.71C12.9374 10.71 13.1107 10.7833 13.2507 10.93C13.3974 11.0767 13.4707 11.25 13.4707 11.45C13.4707 11.65 13.3974 11.8233 13.2507 11.97C13.1107 12.1167 12.9374 12.19 12.7307 12.19ZM14.69 18V14.95C14.69 14.5567 14.7833 14.1967 14.97 13.87C15.1567 13.5367 15.4267 13.2733 15.78 13.08C16.1333 12.88 16.5567 12.78 17.05 12.78C17.29 12.78 17.52 12.81 17.74 12.87C17.96 12.93 18.1633 13.0267 18.35 13.16C18.5433 13.2867 18.7067 13.4467 18.84 13.64H18.85C18.9833 13.4467 19.1433 13.2867 19.33 13.16C19.5233 13.0267 19.73 12.93 19.95 12.87C20.1767 12.81 20.41 12.78 20.65 12.78C21.15 12.78 21.5733 12.88 21.92 13.08C22.2733 13.2733 22.5433 13.5367 22.73 13.87C22.9167 14.1967 23.01 14.5567 23.01 14.95V18H21.87V14.95C21.87 14.73 21.8133 14.53 21.7 14.35C21.5933 14.17 21.45 14.0267 21.27 13.92C21.09 13.8133 20.8833 13.76 20.65 13.76C20.4233 13.76 20.2167 13.8133 20.03 13.92C19.8433 14.0267 19.6933 14.17 19.58 14.35C19.4733 14.53 19.42 14.73 19.42 14.95V18H18.28V14.95C18.28 14.73 18.2233 14.53 18.11 14.35C17.9967 14.17 17.8467 14.0267 17.66 13.92C17.48 13.8133 17.2767 13.76 17.05 13.76C16.8233 13.76 16.6167 13.8133 16.43 13.92C16.25 14.0267 16.1033 14.17 15.99 14.35C15.8833 14.53 15.83 14.73 15.83 14.95V18H14.69ZM24.3873 18V12.9H25.5373V18H24.3873ZM24.9573 12.19C24.7573 12.19 24.5839 12.1167 24.4373 11.97C24.2906 11.8233 24.2173 11.65 24.2173 11.45C24.2173 11.25 24.2906 11.0767 24.4373 10.93C24.5839 10.7833 24.7573 10.71 24.9573 10.71C25.1639 10.71 25.3373 10.7833 25.4773 10.93C25.6239 11.0767 25.6973 11.25 25.6973 11.45C25.6973 11.65 25.6239 11.8233 25.4773 11.97C25.3373 12.1167 25.1639 12.19 24.9573 12.19Z" fill="white"/>
<defs>
<linearGradient id="paint0_linear_7159_15306" x1="43.2033" y1="-1.68198" x2="8.30459" y2="8.79338" gradientUnits="userSpaceOnUse">
<stop stop-color="#FFF501"/>
<stop offset="1" stop-color="#FE9300"/>
</linearGradient>
</defs>
</svg>
