<svg width="24" height="24" viewBox="0 0 24 24" fill="none" xmlns="http://www.w3.org/2000/svg">
<path d="M13.999 9.00159L16.999 6.00159M16.999 6.00159L19.999 9.00159M16.999 6.00159V18.0016M4.99902 5.50159C4.99902 5.36898 5.0517 5.2418 5.14547 5.14803C5.23924 5.05427 5.36642 5.00159 5.49902 5.00159H9.49902C9.63163 5.00159 9.75881 5.05427 9.85258 5.14803C9.94635 5.2418 9.99902 5.36898 9.99902 5.50159V9.50159C9.99902 9.63419 9.94635 9.76137 9.85258 9.85514C9.75881 9.94891 9.63163 10.0016 9.49902 10.0016H5.49902C5.36642 10.0016 5.23924 9.94891 5.14547 9.85514C5.0517 9.76137 4.99902 9.63419 4.99902 9.50159V5.50159ZM4.99902 14.5016C4.99902 14.369 5.0517 14.2418 5.14547 14.148C5.23924 14.0543 5.36642 14.0016 5.49902 14.0016H9.49902C9.63163 14.0016 9.75881 14.0543 9.85258 14.148C9.94635 14.2418 9.99902 14.369 9.99902 14.5016V18.5016C9.99902 18.6342 9.94635 18.7614 9.85258 18.8551C9.75881 18.9489 9.63163 19.0016 9.49902 19.0016H5.49902C5.36642 19.0016 5.23924 18.9489 5.14547 18.8551C5.0517 18.7614 4.99902 18.6342 4.99902 18.5016V14.5016Z" stroke="#7C8FAC" stroke-width="1.66667" stroke-linecap="round" stroke-linejoin="round"/>
</svg>
