<svg width="17" height="16" viewBox="0 0 17 16" fill="none" xmlns="http://www.w3.org/2000/svg">
<path d="M9.99927 5.00159L12.9993 2.00159M12.9993 2.00159L15.9993 5.00159M12.9993 2.00159V14.0016M0.999268 1.50159C0.999268 1.36898 1.05195 1.2418 1.14571 1.14803C1.23948 1.05427 1.36666 1.00159 1.49927 1.00159H5.49927C5.63188 1.00159 5.75905 1.05427 5.85282 1.14803C5.94659 1.2418 5.99927 1.36898 5.99927 1.50159V5.50159C5.99927 5.63419 5.94659 5.76137 5.85282 5.85514C5.75905 5.94891 5.63188 6.00159 5.49927 6.00159H1.49927C1.36666 6.00159 1.23948 5.94891 1.14571 5.85514C1.05195 5.76137 0.999268 5.63419 0.999268 5.50159V1.50159ZM0.999268 10.5016C0.999268 10.369 1.05195 10.2418 1.14571 10.148C1.23948 10.0543 1.36666 10.0016 1.49927 10.0016H5.49927C5.63188 10.0016 5.75905 10.0543 5.85282 10.148C5.94659 10.2418 5.99927 10.369 5.99927 10.5016V14.5016C5.99927 14.6342 5.94659 14.7614 5.85282 14.8551C5.75905 14.9489 5.63188 15.0016 5.49927 15.0016H1.49927C1.36666 15.0016 1.23948 14.9489 1.14571 14.8551C1.05195 14.7614 0.999268 14.6342 0.999268 14.5016V10.5016Z" stroke="#7C8FAC" stroke-width="1.66667" stroke-linecap="round" stroke-linejoin="round"/>
</svg>
