<svg width="10" height="10" viewBox="0 0 10 10" fill="none" xmlns="http://www.w3.org/2000/svg">
<path d="M6.68128 1.25624C6.90564 1.03182 7.20696 0.901138 7.52412 0.890693C7.84129 0.880247 8.15055 0.990821 8.38919 1.19999L8.44919 1.25624L8.74378 1.55082C8.96808 1.77517 9.09868 2.0764 9.10913 2.39346C9.11958 2.71053 9.00908 3.01971 8.80003 3.25832L8.74378 3.31832L4.07211 7.99041C4.00606 8.05645 3.92604 8.10686 3.83794 8.13791L3.77044 8.15749L1.91461 8.58582C1.8496 8.60085 1.78193 8.60005 1.71728 8.5835C1.65264 8.56696 1.59291 8.53514 1.54311 8.49073C1.49331 8.44632 1.45489 8.3906 1.43108 8.32827C1.40727 8.26593 1.39876 8.19879 1.40628 8.13249L1.41461 8.08541L1.84253 6.22916C1.86367 6.13811 1.90496 6.05297 1.96336 5.97999L2.00961 5.92791L6.68128 1.25624ZM6.38669 2.72916L2.64086 6.47499L2.37586 7.62416L3.52503 7.35874L7.27086 3.61291L6.38669 2.72916ZM7.86003 1.84541C7.78828 1.77367 7.69282 1.73057 7.59156 1.7242C7.4903 1.71784 7.3902 1.74864 7.31003 1.81082L7.27086 1.84541L6.97586 2.13999L7.86003 3.02374L8.15461 2.72916C8.22635 2.65741 8.26945 2.56195 8.27582 2.46069C8.28218 2.35943 8.25138 2.25932 8.18919 2.17916L8.15461 2.13999L7.86003 1.84541Z" fill="#FE9300"/>
</svg>
