<svg width="16" height="17" viewBox="0 0 16 17" fill="none" xmlns="http://www.w3.org/2000/svg">
<path d="M7.99984 12.25C8.18873 12.25 8.34717 12.1833 8.47517 12.05C8.60273 11.9166 8.6665 11.7555 8.6665 11.5666C8.6665 11.3777 8.60273 11.2166 8.47517 11.0833C8.34717 10.95 8.18873 10.8833 7.99984 10.8833C7.79984 10.8833 7.63606 10.95 7.5085 11.0833C7.3805 11.2166 7.3165 11.3777 7.3165 11.5666C7.3165 11.7555 7.3805 11.9166 7.5085 12.05C7.63606 12.1833 7.79984 12.25 7.99984 12.25ZM7.5165 9.84996H8.4665C8.4665 9.52774 8.51095 9.26929 8.59984 9.07463C8.68873 8.8804 8.89984 8.61663 9.23317 8.28329C9.53317 7.9944 9.76095 7.72485 9.9165 7.47463C10.0721 7.22485 10.1498 6.93329 10.1498 6.59996C10.1498 6.02218 9.94428 5.57218 9.53317 5.24996C9.12206 4.92774 8.63317 4.76663 8.0665 4.76663C7.51095 4.76663 7.04984 4.91663 6.68317 5.21663C6.3165 5.51663 6.05539 5.86663 5.89984 6.26663L6.7665 6.59996C6.84428 6.38885 6.9805 6.17774 7.17517 5.96663C7.36939 5.75551 7.66095 5.64996 8.04984 5.64996C8.44984 5.64996 8.74428 5.75818 8.93317 5.97463C9.12206 6.19151 9.2165 6.42774 9.2165 6.68329C9.2165 6.90551 9.14984 7.11107 9.0165 7.29996C8.88317 7.48885 8.7165 7.67218 8.5165 7.84996C8.08317 8.23885 7.80828 8.55285 7.69184 8.79196C7.57495 9.03063 7.5165 9.38329 7.5165 9.84996ZM7.99984 14.8333C7.12206 14.8333 6.29717 14.6666 5.52517 14.3333C4.75273 14 4.08317 13.55 3.5165 12.9833C2.94984 12.4166 2.49984 11.7471 2.1665 10.9746C1.83317 10.2026 1.6665 9.37774 1.6665 8.49996C1.6665 7.62218 1.83317 6.79707 2.1665 6.02463C2.49984 5.25263 2.94984 4.58329 3.5165 4.01663C4.08317 3.44996 4.75273 2.99996 5.52517 2.66663C6.29717 2.33329 7.12206 2.16663 7.99984 2.16663C8.87761 2.16663 9.70273 2.33329 10.4752 2.66663C11.2472 2.99996 11.9165 3.44996 12.4832 4.01663C13.0498 4.58329 13.4998 5.25263 13.8332 6.02463C14.1665 6.79707 14.3332 7.62218 14.3332 8.49996C14.3332 9.37774 14.1665 10.2026 13.8332 10.9746C13.4998 11.7471 13.0498 12.4166 12.4832 12.9833C11.9165 13.55 11.2472 14 10.4752 14.3333C9.70273 14.6666 8.87761 14.8333 7.99984 14.8333ZM7.99984 13.8333C9.48873 13.8333 10.7498 13.3166 11.7832 12.2833C12.8165 11.25 13.3332 9.98885 13.3332 8.49996C13.3332 7.01107 12.8165 5.74996 11.7832 4.71663C10.7498 3.68329 9.48873 3.16663 7.99984 3.16663C6.51095 3.16663 5.24984 3.68329 4.2165 4.71663C3.18317 5.74996 2.6665 7.01107 2.6665 8.49996C2.6665 9.98885 3.18317 11.25 4.2165 12.2833C5.24984 13.3166 6.51095 13.8333 7.99984 13.8333Z" fill="#539BFF"/>
</svg>
