<svg width="16" height="16" viewBox="0 0 16 16" fill="none" xmlns="http://www.w3.org/2000/svg">
<path d="M7.99984 11.7501C8.18873 11.7501 8.34717 11.6834 8.47517 11.5501C8.60273 11.4167 8.6665 11.2556 8.6665 11.0667C8.6665 10.8779 8.60273 10.7167 8.47517 10.5834C8.34717 10.4501 8.18873 10.3834 7.99984 10.3834C7.79984 10.3834 7.63606 10.4501 7.5085 10.5834C7.3805 10.7167 7.3165 10.8779 7.3165 11.0667C7.3165 11.2556 7.3805 11.4167 7.5085 11.5501C7.63606 11.6834 7.79984 11.7501 7.99984 11.7501ZM7.5165 9.35008H8.4665C8.4665 9.02786 8.51095 8.76941 8.59984 8.57475C8.68873 8.38053 8.89984 8.11675 9.23317 7.78341C9.53317 7.49453 9.76095 7.22497 9.9165 6.97475C10.0721 6.72497 10.1498 6.43341 10.1498 6.10008C10.1498 5.5223 9.94428 5.0723 9.53317 4.75008C9.12206 4.42786 8.63317 4.26675 8.0665 4.26675C7.51095 4.26675 7.04984 4.41675 6.68317 4.71675C6.3165 5.01675 6.05539 5.36675 5.89984 5.76675L6.7665 6.10008C6.84428 5.88897 6.9805 5.67786 7.17517 5.46675C7.36939 5.25564 7.66095 5.15008 8.04984 5.15008C8.44984 5.15008 8.74428 5.2583 8.93317 5.47475C9.12206 5.69164 9.2165 5.92786 9.2165 6.18341C9.2165 6.40564 9.14984 6.61119 9.0165 6.80008C8.88317 6.98897 8.7165 7.1723 8.5165 7.35008C8.08317 7.73897 7.80828 8.05297 7.69184 8.29208C7.57495 8.53075 7.5165 8.88341 7.5165 9.35008ZM7.99984 14.3334C7.12206 14.3334 6.29717 14.1667 5.52517 13.8334C4.75273 13.5001 4.08317 13.0501 3.5165 12.4834C2.94984 11.9167 2.49984 11.2472 2.1665 10.4747C1.83317 9.70275 1.6665 8.87786 1.6665 8.00008C1.6665 7.1223 1.83317 6.29719 2.1665 5.52475C2.49984 4.75275 2.94984 4.08341 3.5165 3.51675C4.08317 2.95008 4.75273 2.50008 5.52517 2.16675C6.29717 1.83341 7.12206 1.66675 7.99984 1.66675C8.87761 1.66675 9.70273 1.83341 10.4752 2.16675C11.2472 2.50008 11.9165 2.95008 12.4832 3.51675C13.0498 4.08341 13.4998 4.75275 13.8332 5.52475C14.1665 6.29719 14.3332 7.1223 14.3332 8.00008C14.3332 8.87786 14.1665 9.70275 13.8332 10.4747C13.4998 11.2472 13.0498 11.9167 12.4832 12.4834C11.9165 13.0501 11.2472 13.5001 10.4752 13.8334C9.70273 14.1667 8.87761 14.3334 7.99984 14.3334ZM7.99984 13.3334C9.48873 13.3334 10.7498 12.8167 11.7832 11.7834C12.8165 10.7501 13.3332 9.48897 13.3332 8.00008C13.3332 6.51119 12.8165 5.25008 11.7832 4.21675C10.7498 3.18341 9.48873 2.66675 7.99984 2.66675C6.51095 2.66675 5.24984 3.18341 4.2165 4.21675C3.18317 5.25008 2.6665 6.51119 2.6665 8.00008C2.6665 9.48897 3.18317 10.7501 4.2165 11.7834C5.24984 12.8167 6.51095 13.3334 7.99984 13.3334Z" fill="#7C8FAC"/>
</svg>
