<svg width="10" height="10" viewBox="0 0 10 10" fill="none" xmlns="http://www.w3.org/2000/svg">
<path d="M8.4375 1.875H7.03125V1.40625C7.03125 1.11617 6.91602 0.83797 6.7109 0.632852C6.50578 0.427734 6.22758 0.3125 5.9375 0.3125H4.0625C3.77242 0.3125 3.49422 0.427734 3.2891 0.632852C3.08398 0.83797 2.96875 1.11617 2.96875 1.40625V1.875H1.5625C1.43818 1.875 1.31895 1.92439 1.23104 2.01229C1.14314 2.1002 1.09375 2.21943 1.09375 2.34375C1.09375 2.46807 1.14314 2.5873 1.23104 2.67521C1.31895 2.76311 1.43818 2.8125 1.5625 2.8125H1.71875V8.125C1.71875 8.3322 1.80106 8.53091 1.94757 8.67743C2.09409 8.82394 2.2928 8.90625 2.5 8.90625H7.5C7.7072 8.90625 7.90591 8.82394 8.05243 8.67743C8.19894 8.53091 8.28125 8.3322 8.28125 8.125V2.8125H8.4375C8.56182 2.8125 8.68105 2.76311 8.76896 2.67521C8.85686 2.5873 8.90625 2.46807 8.90625 2.34375C8.90625 2.21943 8.85686 2.1002 8.76896 2.01229C8.68105 1.92439 8.56182 1.875 8.4375 1.875ZM3.90625 1.40625C3.90625 1.36481 3.92271 1.32507 3.95201 1.29576C3.98132 1.26646 4.02106 1.25 4.0625 1.25H5.9375C5.97894 1.25 6.01868 1.26646 6.04799 1.29576C6.07729 1.32507 6.09375 1.36481 6.09375 1.40625V1.875H3.90625V1.40625ZM7.34375 7.96875H2.65625V2.8125H7.34375V7.96875ZM4.53125 4.0625V6.5625C4.53125 6.68682 4.48186 6.80605 4.39396 6.89396C4.30605 6.98186 4.18682 7.03125 4.0625 7.03125C3.93818 7.03125 3.81895 6.98186 3.73104 6.89396C3.64314 6.80605 3.59375 6.68682 3.59375 6.5625V4.0625C3.59375 3.93818 3.64314 3.81895 3.73104 3.73104C3.81895 3.64314 3.93818 3.59375 4.0625 3.59375C4.18682 3.59375 4.30605 3.64314 4.39396 3.73104C4.48186 3.81895 4.53125 3.93818 4.53125 4.0625ZM6.40625 4.0625V6.5625C6.40625 6.68682 6.35686 6.80605 6.26896 6.89396C6.18105 6.98186 6.06182 7.03125 5.9375 7.03125C5.81318 7.03125 5.69395 6.98186 5.60604 6.89396C5.51814 6.80605 5.46875 6.68682 5.46875 6.5625V4.0625C5.46875 3.93818 5.51814 3.81895 5.60604 3.73104C5.69395 3.64314 5.81318 3.59375 5.9375 3.59375C6.06182 3.59375 6.18105 3.64314 6.26896 3.73104C6.35686 3.81895 6.40625 3.93818 6.40625 4.0625Z" fill="#FE9300"/>
</svg>
