<svg width="14" height="15" viewBox="0 0 14 15" fill="none" xmlns="http://www.w3.org/2000/svg">
<path d="M4.8667 14.0834L3.68337 12.0667L1.43337 11.5834L1.65003 9.25008L0.116699 7.50008L1.65003 5.75008L1.43337 3.41675L3.68337 2.93341L4.8667 0.916748L7.00003 1.83341L9.13336 0.916748L10.3167 2.93341L12.5667 3.41675L12.35 5.75008L13.8834 7.50008L12.35 9.25008L12.5667 11.5834L10.3167 12.0667L9.13336 14.0834L7.00003 13.1667L4.8667 14.0834ZM5.30003 12.8001L7.00003 12.0834L8.7167 12.8001L9.6667 11.2001L11.5 10.7834L11.3334 8.90008L12.5667 7.50008L11.3334 6.08341L11.5 4.20008L9.6667 3.80008L8.70003 2.20008L7.00003 2.91675L5.28337 2.20008L4.33337 3.80008L2.50003 4.20008L2.6667 6.08341L1.43337 7.50008L2.6667 8.90008L2.50003 10.8001L4.33337 11.2001L5.30003 12.8001ZM6.30003 9.63341L9.83337 6.10008L9.13336 5.38341L6.30003 8.21675L4.8667 6.80008L4.1667 7.50008L6.30003 9.63341Z" fill="#13DEB9"/>
</svg>
