<svg width="16" height="17" viewBox="0 0 16 17" fill="none" xmlns="http://www.w3.org/2000/svg">
<path d="M7.49984 11.6666H8.49984V7.83329H7.49984V11.6666ZM7.99984 6.69996C8.15539 6.69996 8.28317 6.64707 8.38317 6.54129C8.48317 6.43596 8.53317 6.30551 8.53317 6.14996C8.53317 6.00551 8.48317 5.8804 8.38317 5.77463C8.28317 5.66929 8.15539 5.61663 7.99984 5.61663C7.84428 5.61663 7.7165 5.66929 7.6165 5.77463C7.5165 5.8804 7.4665 6.00551 7.4665 6.14996C7.4665 6.30551 7.5165 6.43596 7.6165 6.54129C7.7165 6.64707 7.84428 6.69996 7.99984 6.69996ZM7.99984 14.8333C7.12206 14.8333 6.29717 14.6666 5.52517 14.3333C4.75273 14 4.08317 13.55 3.5165 12.9833C2.94984 12.4166 2.49984 11.7471 2.1665 10.9746C1.83317 10.2026 1.6665 9.37774 1.6665 8.49996C1.6665 7.62218 1.83317 6.79707 2.1665 6.02463C2.49984 5.25263 2.94984 4.58329 3.5165 4.01663C4.08317 3.44996 4.75273 2.99996 5.52517 2.66663C6.29717 2.33329 7.12206 2.16663 7.99984 2.16663C8.87761 2.16663 9.70273 2.33329 10.4752 2.66663C11.2472 2.99996 11.9165 3.44996 12.4832 4.01663C13.0498 4.58329 13.4998 5.25263 13.8332 6.02463C14.1665 6.79707 14.3332 7.62218 14.3332 8.49996C14.3332 9.37774 14.1665 10.2026 13.8332 10.9746C13.4998 11.7471 13.0498 12.4166 12.4832 12.9833C11.9165 13.55 11.2472 14 10.4752 14.3333C9.70273 14.6666 8.87761 14.8333 7.99984 14.8333ZM7.99984 13.8333C9.48873 13.8333 10.7498 13.3166 11.7832 12.2833C12.8165 11.25 13.3332 9.98885 13.3332 8.49996C13.3332 7.01107 12.8165 5.74996 11.7832 4.71663C10.7498 3.68329 9.48873 3.16663 7.99984 3.16663C6.51095 3.16663 5.24984 3.68329 4.2165 4.71663C3.18317 5.74996 2.6665 7.01107 2.6665 8.49996C2.6665 9.98885 3.18317 11.25 4.2165 12.2833C5.24984 13.3166 6.51095 13.8333 7.99984 13.8333Z" fill="#FFAE1F"/>
</svg>
